
<svg width="103px" height="59px" viewBox="0 0 103 59" version="1.1" xmlns="http://www.w3.org/2000/svg" xmlns:xlink="http://www.w3.org/1999/xlink">
    <defs>
        <polygon id="path-1l1at_7_u1-1" points="0 0 73.1964604 0 73.1964604 21.8926287 0 21.8926287"></polygon>
        <polygon id="path-1l1at_7_u1-3" points="0 0 102.99966 0 102.99966 21.8914336 0 21.8914336"></polygon>
    </defs>
    <g id="Page-1" stroke="none" stroke-width="1" fill="none" fill-rule="evenodd">
        <g id="New-Homepage" transform="translate(-1326.000000, -1016.000000)">
            <g id="Group" transform="translate(800.000000, 950.000000)">
                <g id="Group-10" transform="translate(58.071469, 50.000000)">
                    <g id="Group-9" transform="translate(467.928531, 16.000000)">
                        <g id="Group-3">
                            <mask id="mask-1l1at_7_u1-2" fill="white">
                                <use xlink:href="#path-1l1at_7_u1-1"></use>
                            </mask>
                            <g id="Clip-2"></g>
                            <path d="M73.1964604,10.9460582 C73.1964604,4.91110404 68.3104671,-0.000512160188 62.3032097,-0.000512160188 C56.2976513,-0.000512160188 51.411658,4.91110404 51.411658,10.9460582 C51.411658,11.9447706 51.5458699,12.9212894 51.8057993,13.8687857 L55.2069671,13.8687857 C54.8298146,12.9417758 54.6361417,11.9584282 54.6361417,10.9460582 C54.6361417,6.69854309 58.0763838,3.24146183 62.3032097,3.24146183 C66.5317345,3.24146183 69.9702778,6.69854309 69.9702778,10.9460582 C69.9702778,15.1935734 66.5317345,18.6506547 62.3032097,18.6506547 L0,18.6506547 L0,21.8926287 L62.3032097,21.8926287 C68.3104671,21.8926287 73.1964604,16.9810125 73.1964604,10.9460582" id="Fill-1" fill="#F6ECDD" mask="url(#mask-1l1at_7_u1-2)"></path>
                        </g>
                        <path d="M79.5353401,37.1085664 L0.000339777001,37.1085664 L0.000339777001,40.3505404 L79.5353401,40.3505404 C83.7638649,40.3505404 87.2024081,43.8059144 87.2024081,48.0551368 C87.2024081,52.3026519 83.7638649,55.7597332 79.5353401,55.7597332 C75.3085142,55.7597332 71.8682721,52.3026519 71.8682721,48.0551368 C71.8682721,47.0478884 72.0585472,46.0713697 72.4323019,45.1494813 L69.032833,45.1494813 C68.7763014,46.0901489 68.6420895,47.0632532 68.6420895,48.0551368 C68.6420895,54.090091 73.5297816,59 79.5353401,59 C85.5408986,59 90.4285908,54.090091 90.4285908,48.0551368 C90.4285908,42.0184754 85.5408986,37.1085664 79.5353401,37.1085664" id="Fill-4" fill="#F6ECDD"></path>
                        <g id="Group-8" transform="translate(0.000340, 9.325413)">
                            <mask id="mask-1l1at_7_u1-4" fill="white">
                                <use xlink:href="#path-1l1at_7_u1-3"></use>
                            </mask>
                            <g id="Clip-7"></g>
                            <path d="M92.1067494,0 C86.1011909,0 81.2134987,4.909909 81.2134987,10.9465704 C81.2134987,11.9708908 81.3562051,12.9730175 81.6297255,13.9444147 L84.9034769,13.9444147 L85.0207,13.8949059 C84.6350531,12.9593599 84.4396813,11.9674764 84.4396813,10.9465704 C84.4396813,6.69734805 87.8799235,3.24197399 92.1067494,3.24197399 C96.3335752,3.24197399 99.7738174,6.69734805 99.7738174,10.9465704 C99.7738174,15.1940856 96.3335752,18.6511668 92.1067494,18.6511668 L0,18.6511668 L0,21.8914336 L92.1067494,21.8914336 C98.1123078,21.8914336 103,16.9815246 103,10.9465704 C103,4.909909 98.1123078,0 92.1067494,0" id="Fill-6" fill="#F6ECDD" mask="url(#mask-1l1at_7_u1-4)"></path>
                        </g>
                    </g>
                </g>
            </g>
        </g>
    </g>
</svg>