<svg version="1.2" baseProfile="tiny-ps" xmlns="http://www.w3.org/2000/svg" viewBox="0 0 512 512"><style>.shp0{fill:#000}</style><g id="Layer"><g id="Layer"><path id="Layer" fill-rule="evenodd" class="shp0" d="M512 208c0 12.82-5.1 24.77-13.89 33.58 9.97 10.9 15.04 25.51 13.66 40.72-2.5 27.12-26.93 48.37-55.64 48.37H324.35c6.53 19.82 16.98 56.15 16.98 85.33 0 46.27-39.31 85.33-64 85.33-22.14 0-37.99-12.48-38.65-12.99-2.54-2.03-4.01-5.1-4.01-8.34v-72.34l-61.46-133.1-2.54-1.3v4.07c0 5.89-4.78 10.67-10.67 10.67H53.33C23.91 288 0 264.09 0 234.67V64c0-29.42 23.91-53.33 53.33-53.33h64c23.06 0 42.78 14.72 50.2 35.26C185.28 36.8 209.17 32 224 32h195.82c23.23 0 43.56 15.66 48.34 37.25 2.45 11.13 1.02 22.33-3.84 32.06 15.74 7.92 26.35 24.19 26.35 42.69 0 7.55-1.73 14.78-5 21.31C501.42 173.25 512 189.5 512 208zm-44.99-26.32c-4.12-.5-7.6-3.29-8.92-7.24-1.3-3.94-.21-8.27 2.82-11.13 5.42-5.1 8.42-11.97 8.42-19.31 0-13.46-10.17-24.77-23.63-26.33-4.12-.49-7.6-3.28-8.92-7.23-1.3-3.94-.21-8.27 2.82-11.13 7.02-6.62 9.83-15.9 7.72-25.45-2.63-11.91-14.19-20.53-27.5-20.53H224c-17.32 0-46.38 8.13-56.45 18.22-3.05 3.03-7.66 3.93-11.63 2.31a10.691 10.691 0 01-6.59-9.86c0-17.64-14.35-32-32-32h-64c-17.64 0-32 14.36-32 32v170.67c0 17.64 14.36 32 32 32h96V256c0-3.69 1.92-7.12 5.08-9.09 3.11-1.88 7.04-2.07 10.37-.45l21.33 10.67c2.16 1.07 3.88 2.86 4.91 5.06l64 138.66c.64 1.41.98 2.95.98 4.48v68.89c4.44 2.45 12.14 5.78 21.33 5.78 11.69 0 42.67-29.06 42.67-64 0-37.55-20.44-91.67-20.63-92.2-1.24-3.27-.81-6.96 1.17-9.86 2.01-2.88 5.29-4.61 8.79-4.61h146.8c17.79 0 32.89-12.73 34.39-28.99 1.13-12.16-4.72-23.72-15.19-30.19-3.27-2-5.21-5.63-5.06-9.49.15-3.86 2.37-7.32 5.78-9.09 9.03-4.58 14.62-13.63 14.62-23.57 0-13.46-10.18-24.77-23.66-26.32z"/></g></g><g id="Layer"><g id="Layer"><path id="Layer" class="shp0" d="M160 266.67c-5.89 0-10.67-4.78-10.67-10.67V64c0-5.89 4.78-10.67 10.67-10.67s10.67 4.78 10.67 10.67v192c0 5.89-4.78 10.67-10.67 10.67z"/></g></g></svg>